<mxfile host="65bd71144e">
    <diagram id="d4J3_S-236u8qbCypoqW" name="Page-1">
        <mxGraphModel dx="1071" dy="787" grid="1" gridSize="10" guides="1" tooltips="1" connect="1" arrows="1" fold="1" page="1" pageScale="1" pageWidth="850" pageHeight="1100" math="0" shadow="0">
            <root>
                <mxCell id="0"/>
                <mxCell id="1" parent="0"/>
                <mxCell id="9" style="edgeStyle=none;html=1;entryX=0.5;entryY=0;entryDx=0;entryDy=0;" edge="1" parent="1" target="8">
                    <mxGeometry relative="1" as="geometry">
                        <mxPoint x="205" y="210" as="sourcePoint"/>
                    </mxGeometry>
                </mxCell>
                <mxCell id="12" value="&lt;h2&gt;&lt;font face=&quot;Comic Sans MS&quot;&gt;方案组配置现状&lt;/font&gt;&lt;/h2&gt;" style="rounded=1;whiteSpace=wrap;html=1;comic=3;" vertex="1" parent="1">
                    <mxGeometry x="100" y="130" width="440" height="280" as="geometry"/>
                </mxCell>
                <mxCell id="13" value="&lt;font face=&quot;Comic Sans MS&quot;&gt;Apollo配置&lt;/font&gt;" style="rounded=0;whiteSpace=wrap;html=1;comic=1;" vertex="1" parent="1">
                    <mxGeometry x="140" y="160" width="120" height="60" as="geometry"/>
                </mxCell>
                <mxCell id="14" value="&lt;font face=&quot;Comic Sans MS&quot;&gt;java应用数据库配置表&lt;/font&gt;" style="rounded=0;whiteSpace=wrap;html=1;comic=1;" vertex="1" parent="1">
                    <mxGeometry x="390" y="310" width="120" height="60" as="geometry"/>
                </mxCell>
                <mxCell id="15" value="&lt;font face=&quot;Comic Sans MS&quot;&gt;PHP应用数据库配置表&lt;/font&gt;" style="rounded=0;whiteSpace=wrap;html=1;comic=1;" vertex="1" parent="1">
                    <mxGeometry x="140" y="310" width="120" height="60" as="geometry"/>
                </mxCell>
                <mxCell id="16" value="&lt;font face=&quot;Comic Sans MS&quot;&gt;PHP应用服务器env&lt;/font&gt;" style="rounded=0;whiteSpace=wrap;html=1;comic=1;" vertex="1" parent="1">
                    <mxGeometry x="390" y="160" width="120" height="60" as="geometry"/>
                </mxCell>
            </root>
        </mxGraphModel>
    </diagram>
</mxfile>